<?xml version="1.0" encoding="UTF-8"?>
<svg version="1.1" xmlns="http://www.w3.org/2000/svg" width="763" height="327">
<path d="M0 0 C0.99 0.33 1.98 0.66 3 1 C3.29495361 1.66644531 3.58990723 2.33289063 3.89379883 3.01953125 C4.25884521 3.67308594 4.6238916 4.32664062 5 5 C7.15599232 5.67275095 7.15599232 5.67275095 9.69921875 5.6875 C11.13092407 5.77185303 11.13092407 5.77185303 12.59155273 5.85791016 C13.61321533 5.9047998 14.63487793 5.95168945 15.6875 6 C35.82352216 7.37647679 53.91963279 13.10395482 69 27 C69.79019531 27.721875 70.58039063 28.44375 71.39453125 29.1875 C82.57171677 39.86421453 89.67533221 53.65719255 92 69 C92 71.97 92 74.94 92 78 C85.73 78 79.46 78 73 78 C71.99673655 74.99020966 70.99375062 71.97761585 70.140625 68.921875 C66.07337741 54.43676517 58.83676612 43.33402874 45.8203125 35.53125 C36.48702113 30.46386743 26.36192734 27.47849168 15.796875 26.46166992 C14.89807617 26.37439133 13.99927734 26.28711273 13.07324219 26.19718933 C12.38907227 26.13211685 11.70490234 26.06704437 11 26 C11.00222061 26.64923935 11.00444122 27.2984787 11.00672913 27.96739197 C11.02878002 34.69887748 11.04390577 41.43035281 11.05493164 48.16186523 C11.05997363 50.67716895 11.06680703 53.19246972 11.07543945 55.70776367 C11.08751094 59.31429775 11.09322949 62.92079323 11.09765625 66.52734375 C11.10281754 67.65961899 11.10797882 68.79189423 11.11329651 69.95848083 C11.11337204 70.99948441 11.11344757 72.04048798 11.11352539 73.11303711 C11.115746 74.03459091 11.11796661 74.95614471 11.12025452 75.90562439 C11 78 11 78 10 79 C8.02 79 6.04 79 4 79 C4 61.51 4 44.02 4 26 C-18.69573791 28.83696724 -35.31758099 33.84238768 -50.1015625 51.51171875 C-51.87910275 53.94311191 -53.46298118 56.4105006 -55 59 C-55.50917969 59.81984375 -56.01835938 60.6396875 -56.54296875 61.484375 C-65.56104005 77.52680519 -68.08627964 96.89567918 -69 115 C-69.07089844 116.14597656 -69.14179687 117.29195313 -69.21484375 118.47265625 C-70.06156395 145.80478437 -65.00615786 177.06385701 -46 198 C-45.38511719 198.69480469 -44.77023438 199.38960937 -44.13671875 200.10546875 C-39.34385683 205.22489841 -34.15048959 208.68743728 -28 212 C-27.34257813 212.38027344 -26.68515625 212.76054687 -26.0078125 213.15234375 C-9.5620647 222.19409306 12.52401387 221.87335264 30.16796875 217.15234375 C45.62023898 212.31494103 58.85138331 203.3458308 66.69140625 188.87890625 C71.01106144 179.51424024 72.98287855 170.08560725 75 160 C81.6 160 88.2 160 95 160 C92.35914043 185.08816589 84.38440686 205.90069321 64.97265625 222.71875 C44.08237029 238.75019153 17.42511081 243.45130938 -8.33398438 240.1796875 C-33.07591493 236.69020292 -53.96972149 225.34831657 -69.22558594 205.42358398 C-92.25324157 173.90910911 -95.91540251 130.82206755 -90.36376953 93.20996094 C-85.73633747 65.09753475 -73.39112581 38.55646662 -50 21.4375 C-35.65069527 11.6245218 -19.95396242 7.7276091 -3 5 C-2.814375 4.0409375 -2.814375 4.0409375 -2.625 3.0625 C-2.41875 2.381875 -2.2125 1.70125 -2 1 C-1.34 0.67 -0.68 0.34 0 0 Z " fill="#F5F5F5" transform="translate(95,83)"/>
<path d="M0 0 C3.78650743 0.5343291 3.78650743 0.5343291 5.33465576 2.57348633 C5.62221741 3.21568115 5.90977905 3.85787598 6.20605469 4.51953125 C6.69942322 5.60633179 6.69942322 5.60633179 7.20275879 6.71508789 C8.88578597 10.72706418 10.51509272 14.75211477 12.078125 18.8125 C12.42760193 19.71121826 12.77707886 20.60993652 13.137146 21.53588867 C14.24088361 24.37670361 15.33927394 27.21955045 16.4375 30.0625 C17.18975019 32.00143945 17.94235097 33.94024292 18.6953125 35.87890625 C20.53009765 40.6052088 22.3600936 45.33333986 24.1875 50.0625 C27.33746871 42.31715888 30.41276812 34.55326607 33.29296875 26.703125 C33.54708527 26.01287231 33.80120178 25.32261963 34.0630188 24.6114502 C35.1015351 21.78830388 36.13854601 18.9647061 37.16381836 16.13671875 C37.92855538 14.03102425 38.703604 11.92937001 39.48046875 9.828125 C39.9293042 8.59868164 40.37813965 7.36923828 40.84057617 6.10253906 C42.94711995 1.34801974 42.94711995 1.34801974 45.1875 0.0625 C47.4975 0.3925 49.8075 0.7225 52.1875 1.0625 C52.1875 21.5225 52.1875 41.9825 52.1875 63.0625 C50.2075 63.0625 48.2275 63.0625 46.1875 63.0625 C45.8575 45.9025 45.5275 28.7425 45.1875 11.0625 C43.7025 15.208125 42.2175 19.35375 40.6875 23.625 C40.19548096 24.99124512 39.70346191 26.35749023 39.1965332 27.76513672 C37.02180534 33.82262078 34.8968271 39.88264827 32.91796875 46.0078125 C32.39783203 47.59227173 32.39783203 47.59227173 31.8671875 49.20874023 C31.21582193 51.20531035 30.58111626 53.20740826 29.96484375 55.21508789 C29.6709375 56.10703857 29.37703125 56.99898926 29.07421875 57.91796875 C28.70623169 59.08815552 28.70623169 59.08815552 28.33081055 60.28198242 C27.95351807 60.86955322 27.57622559 61.45712402 27.1875 62.0625 C24.7125 62.5575 24.7125 62.5575 22.1875 63.0625 C15.9175 46.2325 9.6475 29.4025 3.1875 12.0625 C2.8575 28.8925 2.5275 45.7225 2.1875 63.0625 C-0.1225 63.0625 -2.4325 63.0625 -4.8125 63.0625 C-4.83562737 54.99597826 -4.85341709 46.92947028 -4.86431217 38.86292362 C-4.86954014 35.11766963 -4.87663622 31.37243824 -4.88793945 27.62719727 C-4.89877141 24.01568313 -4.90477749 20.40419079 -4.90737724 16.79266167 C-4.90923094 15.41189671 -4.91285049 14.031133 -4.91823006 12.65037727 C-4.92544447 10.72274048 -4.92590809 8.79508193 -4.92602539 6.86743164 C-4.928246 5.76822891 -4.93046661 4.66902618 -4.93275452 3.53651428 C-4.73651586 -0.50073313 -4.24457007 0.06958312 0 0 Z " fill="#E6E6E6" transform="translate(220.8125,170.9375)"/>
<path d="M0 0 C6.74950309 5.52232071 10.55092038 12.35644265 11.77734375 20.94140625 C12.49283521 30.76999944 11.85989995 39.79916063 6 48 C0.68843598 53.95653965 -5.23277441 56.44655488 -13 58 C-21.25 58 -29.5 58 -38 58 C-38 37.54 -38 17.08 -38 -4 C-9.73270254 -6.82672975 -9.73270254 -6.82672975 0 0 Z M-31 2 C-31 18.5 -31 35 -31 52 C-15.58623834 52.43183291 -15.58623834 52.43183291 -2.125 47.3125 C3.93357046 40.7193498 5.36475679 33.20825978 5.27734375 24.49609375 C4.74037187 17.72722281 2.7756265 11.50423519 -1.875 6.4375 C-10.87965621 -0.58613184 -18.98042938 2 -31 2 Z " fill="#E3E3E3" transform="translate(528,176)"/>
<path d="M0 0 C31 0 31 0 39 4 C42.98054562 7.98054562 43.86774787 10.33362317 44.3125 15.9375 C44.14876164 20.78597488 42.77481424 24.17064064 39.34765625 27.703125 C34.59900701 32 34.59900701 32 31 32 C31.39380859 32.80219971 31.78761719 33.60439941 32.19335938 34.4309082 C33.65169349 37.408628 35.10471194 40.38881967 36.55419922 43.37084961 C37.18261934 44.66094388 37.81314064 45.95001684 38.44580078 47.23803711 C39.3548331 49.08963748 40.2562448 50.94477967 41.15625 52.80078125 C41.70087891 53.91622314 42.24550781 55.03166504 42.80664062 56.1809082 C44 59 44 59 44 62 C42.02 62 40.04 62 38 62 C36.41524955 59.00074658 34.83246479 56.00045992 33.25 53 C32.8065625 52.16082031 32.363125 51.32164062 31.90625 50.45703125 C30.59771482 47.97466303 29.29631708 45.48876901 28 43 C27.59716797 42.22785156 27.19433594 41.45570313 26.77929688 40.66015625 C24 35.23881173 24 35.23881173 24 33 C18.39 33 12.78 33 7 33 C7 42.57 7 52.14 7 62 C4.69 62 2.38 62 0 62 C0 41.54 0 21.08 0 0 Z M7 6 C7 12.93 7 19.86 7 27 C10.72960366 27.08101311 14.45744359 27.14051069 18.1875 27.1875 C19.77014648 27.22520508 19.77014648 27.22520508 21.38476562 27.26367188 C22.40634766 27.27333984 23.42792969 27.28300781 24.48046875 27.29296875 C25.41785889 27.3086792 26.35524902 27.32438965 27.32104492 27.34057617 C30.52755091 26.93293233 32.38298908 25.86129653 35 24 C37.56632517 20.57823311 37.36435051 17.15359579 37 13 C35.65834826 9.82240377 34.82618984 8.40712853 31.71801758 6.87548828 C28.86614477 5.9568845 26.68519599 5.76976379 23.69921875 5.8046875 C22.72275391 5.81113281 21.74628906 5.81757813 20.74023438 5.82421875 C19.22913086 5.84935547 19.22913086 5.84935547 17.6875 5.875 C16.14739258 5.88853516 16.14739258 5.88853516 14.57617188 5.90234375 C12.05068073 5.92583669 9.52531008 5.96170549 7 6 Z " fill="#E2E2E2" transform="translate(608,172)"/>
<path d="M0 0 C8.04203221 5.20707122 12.11348873 12.64742799 14.375 21.8125 C15.90321522 31.15812383 15.10553287 40.88035737 10 49 C5.58497415 55.001006 0.58714205 60.53414787 -7 62 C-16.32164033 62.81231437 -22.49939578 61.76794772 -29.6875 55.75 C-37.2672349 46.7362612 -40.08026292 37.79864907 -40 26 C-38.82220794 16.55456954 -35.18205637 8.60518528 -28.125 2.125 C-19.17024474 -3.96423357 -9.79922425 -4.79682306 0 0 Z M-24.796875 7.515625 C-31.15855485 14.50717415 -33.31219629 22.60104946 -33.15234375 31.92578125 C-32.55448198 40.06589919 -29.57550106 46.93626488 -23.4375 52.375 C-18.65932836 56.35503607 -14.00614953 56.53755555 -8 56 C-2.14664631 54.12692682 1.63295041 49.99955848 5 45 C9.02827521 36.43282313 9.29501342 27.18108706 6.375 18.25 C4.16968713 12.78363939 1.25065102 7.88161436 -3.95703125 4.8671875 C-11.03069393 1.86460028 -18.83870303 2.49003647 -24.796875 7.515625 Z " fill="#E5E5E5" transform="translate(192,173)"/>
<path d="M0 0 C7.70504961 5.60496242 11.13479939 13.38917114 12.68359375 22.5703125 C13.85778154 31.58691503 12.51203339 40.39460545 8.125 48.4375 C3.48418719 54.03377427 -1.58105209 59.5945891 -9 61 C-16.92898496 61.6402286 -23.71637021 61.34830512 -30.12890625 56.3359375 C-36.9660002 50.01508821 -40.64971772 42.52412382 -41.23828125 33.2421875 C-41.45307945 24.71762809 -41.28083129 17.62523074 -37 10 C-36.4225 8.9275 -35.845 7.855 -35.25 6.75 C-25.76905767 -4.8378184 -13.17940188 -6.57999593 0 0 Z M-26.74609375 6.51171875 C-32.77172397 13.19851538 -34.54948693 19.55952916 -34.4375 28.375 C-34.42847656 29.21772461 -34.41945313 30.06044922 -34.41015625 30.92871094 C-34.20470769 38.28205736 -33.23771539 43.58639263 -28.05859375 49.046875 C-23.22985087 53.49323124 -19.89156596 55.32664971 -13.12109375 55.21484375 C-7.03373332 54.59826028 -2.79011769 51.6096026 1 47 C5.97417284 38.59247554 7.47178286 30.13165373 5.46875 20.42578125 C3.33696359 13.60174757 0.10224169 7.97355273 -6 4 C-13.48442711 1.37388522 -20.50784616 1.11081983 -26.74609375 6.51171875 Z " fill="#E6E6E6" transform="translate(586,174)"/>
<path d="M0 0 C2.31 0.33 4.62 0.66 7 1 C7.00586624 1.54821915 7.01173248 2.09643829 7.01777649 2.66127014 C7.08191437 8.38836428 7.16638565 14.11490706 7.26245117 19.84155273 C7.29562117 21.97624422 7.32367758 24.11102173 7.34643555 26.24584961 C7.38012717 29.32182331 7.43245103 32.39701426 7.48828125 35.47265625 C7.49467117 36.42084732 7.5010611 37.36903839 7.50764465 38.34596252 C7.64634582 44.65526023 8.16826175 50.25960815 12.9375 54.875 C18.04112947 57.65879789 24.46947896 57.98258263 30.03515625 56.43359375 C33.2141029 55.14446676 36.05693393 53.86346578 38 51 C40.05553707 45.18619056 40.33756721 39.82573523 40.4140625 33.69140625 C40.43342865 32.72468491 40.4527948 31.75796356 40.4727478 30.76194763 C40.53219191 27.69555287 40.57878769 24.62911984 40.625 21.5625 C40.66321217 19.47459364 40.70226576 17.3867025 40.7421875 15.29882812 C40.83786438 10.19934338 40.92202455 5.09978489 41 0 C42.99954746 -0.04254356 45.00041636 -0.04080783 47 0 C49.08682392 2.08682392 48.16414716 6.6168439 48.16796875 9.49609375 C48.17296135 10.79015892 48.17296135 10.79015892 48.17805481 12.11036682 C48.18313215 13.94556138 48.18546289 15.78076522 48.18530273 17.6159668 C48.18746654 20.39452961 48.20554979 23.17268062 48.22460938 25.95117188 C48.22754786 27.73697782 48.22952961 29.52278564 48.23046875 31.30859375 C48.23765427 32.12879501 48.24483978 32.94899628 48.25224304 33.79405212 C48.21878627 42.45935692 47.27646209 50.91843246 42 58 C34.1500604 64.21857355 26.81969622 64.64603265 17 64 C11.43257216 62.87410297 7.59367598 60.41508763 4 56 C1.16742189 51.04298831 -0.12911386 46.99744534 -0.11352539 41.32324219 C-0.11341209 39.94226349 -0.11341209 39.94226349 -0.11329651 38.53338623 C-0.10813522 37.54783752 -0.10297394 36.56228882 -0.09765625 35.546875 C-0.0962413 34.53151672 -0.09482635 33.51615845 -0.09336853 32.47003174 C-0.08777516 29.22999108 -0.07522385 25.99001975 -0.0625 22.75 C-0.05748414 20.55208433 -0.05292139 18.35416758 -0.04882812 16.15625 C-0.0378079 10.77080971 -0.02107633 5.38540981 0 0 Z " fill="#E3E3E3" transform="translate(338,171)"/>
<path d="M0 0 C7.1744872 5.00883255 7.1744872 5.00883255 8.84375 9.03515625 C9 11 9 11 7 14 C6.34 14 5.68 14 5 14 C3.77713171 12.51272775 2.55508346 11.02476199 1.33984375 9.53125 C-2.29060512 5.38216557 -6.41484393 4.38240488 -11.7109375 3.921875 C-15.46502391 4.05000082 -19.27908675 5.27908675 -22 8 C-22.65060844 13.31013127 -22.65060844 13.31013127 -20.62890625 17.984375 C-15.91940537 21.5952256 -10.28064232 23.38661392 -4.796875 25.55664062 C1.7538655 28.23353671 6.78800233 30.75573675 10.875 36.75 C12.54836145 41.58415531 12.94448579 46.02397875 11.37890625 50.95703125 C8.92949686 55.95382641 4.95045134 58.66013823 0 61 C-6.97518747 63.27702401 -15.57068761 62.96546987 -22.2578125 59.96875 C-28.08983514 56.72583158 -32.05527078 52.41090048 -34 46 C-33.67 45.01 -33.34 44.02 -33 43 C-30.4375 41.8125 -30.4375 41.8125 -28 41 C-27.32845067 42.28913487 -26.66291141 43.58140204 -26 44.875 C-25.62875 45.59429687 -25.2575 46.31359375 -24.875 47.0546875 C-24 49 -24 49 -24 51 C-22.67661368 51.68620031 -21.34050052 52.34786461 -20 53 C-19.29875 53.37125 -18.5975 53.7425 -17.875 54.125 C-12.34787258 55.80716921 -6.98257583 55.72093666 -1.5625 53.75 C1.12025537 51.91787438 2.57939821 50.92012591 4 48 C4.64350148 42.4935584 4.64350148 42.4935584 2.61328125 37.51953125 C-1.77738311 33.28637952 -7.39669372 31.70853403 -13.02734375 29.5703125 C-19.30607888 27.06240118 -24.47094635 24.12038856 -29 19 C-30.59121454 14.22635638 -30.79879085 9.84983145 -28.8125 5.25 C-21.25671275 -4.12959796 -10.46763783 -5.11751183 0 0 Z " fill="#E6E6E6" transform="translate(744,173)"/>
<path d="M0 0 C0.88208008 1.85083008 0.88208008 1.85083008 1.76953125 4.26953125 C2.10146484 5.15962891 2.43339844 6.04972656 2.77539062 6.96679688 C3.28875977 8.37541992 3.28875977 8.37541992 3.8125 9.8125 C6.3060563 16.57378035 8.90829407 23.2624097 11.70385742 29.9050293 C13.94129831 35.24766221 16.09441261 40.62393923 18.25 46 C18.69601562 47.10472656 19.14203125 48.20945313 19.6015625 49.34765625 C20.23964844 50.93900391 20.23964844 50.93900391 20.890625 52.5625 C21.27250977 53.51253906 21.65439453 54.46257812 22.04785156 55.44140625 C22.85963299 57.62280864 23.49681918 59.73101487 24 62 C21.69 62 19.38 62 17 62 C15.02 57.05 13.04 52.1 11 47 C0.77 46.67 -9.46 46.34 -20 46 C-20.495 48.475 -20.495 48.475 -21 51 C-21.65485214 52.94877684 -22.34318269 54.8865859 -23.0625 56.8125 C-23.42472656 57.78832031 -23.78695312 58.76414063 -24.16015625 59.76953125 C-24.43730469 60.50558594 -24.71445312 61.24164063 -25 62 C-27.31 62 -29.62 62 -32 62 C-31.35395188 58.10856256 -30.19116131 54.74987524 -28.6640625 51.1171875 C-28.18211426 49.9619458 -27.70016602 48.8067041 -27.20361328 47.61645508 C-26.6778597 46.36911326 -26.15164459 45.12196588 -25.625 43.875 C-24.52909185 41.27303793 -23.43543639 38.67014241 -22.34375 36.06640625 C-22.065242 35.40297714 -21.78673401 34.73954803 -21.49978638 34.05601501 C-19.57683509 29.45031675 -17.75169206 24.81378572 -15.96875 20.15234375 C-15.48542851 18.90554246 -15.0015521 17.65895613 -14.51708984 16.41259766 C-13.60375016 14.05060065 -12.70760583 11.6818672 -11.83056641 9.30615234 C-11.41468262 8.24219238 -10.99879883 7.17823242 -10.5703125 6.08203125 C-10.21727051 5.14593018 -9.86422852 4.2098291 -9.50048828 3.24536133 C-7.27340664 -0.08728915 -3.77828083 -1.88914041 0 0 Z M-5 8 C-6.71337833 12.23407987 -8.42225627 16.46993692 -10.12695312 20.70751953 C-10.70774363 22.14942616 -11.28977 23.59083563 -11.87304688 25.03173828 C-12.71027311 27.10059835 -13.54306709 29.17119419 -14.375 31.2421875 C-14.63748535 31.88807831 -14.8999707 32.53396912 -15.17041016 33.19943237 C-16.55021946 36.49619957 -16.55021946 36.49619957 -17 40 C-8.42 40 0.16 40 9 40 C5.25558129 29.212508 1.33571773 18.5625464 -3 8 C-3.66 8 -4.32 8 -5 8 Z " fill="#E3E3E3" transform="translate(687,172)"/>
<path d="M0 0 C1.36523438 2.50488281 1.36523438 2.50488281 2.59375 5.703125 C3.06135742 6.89784424 3.52896484 8.09256348 4.01074219 9.32348633 C4.50736039 10.63224875 5.00377482 11.94108851 5.5 13.25 C6.01842349 14.58738916 6.53830112 15.92421547 7.05957031 17.26049805 C8.15130441 20.06204553 9.23658969 22.86597793 10.31835938 25.67138672 C11.99502759 30.00473891 13.71749642 34.31888116 15.453125 38.62890625 C15.73140137 39.32025665 16.00967773 40.01160706 16.29638672 40.72390747 C17.1138514 42.75360234 17.93188591 44.78306682 18.75 46.8125 C19.76817992 49.33883772 20.78340361 51.86629423 21.796875 54.39453125 C22.22323242 55.45518799 22.64958984 56.51584473 23.08886719 57.60864258 C24 60 24 60 24 61 C21.69 61 19.38 61 17 61 C15.9955866 58.7101766 14.99632388 56.4183401 14 54.125 C13.71382813 53.47402344 13.42765625 52.82304687 13.1328125 52.15234375 C11 47.2265625 11 47.2265625 11 45 C0.77 45 -9.46 45 -20 45 C-20.99 47.97 -21.98 50.94 -23 54 C-23.97381959 56.34438048 -24.96440702 58.68224427 -26 61 C-27.98 61 -29.96 61 -32 61 C-31.3094345 56.63008058 -29.8139534 52.70461702 -28.15625 48.62890625 C-27.87107513 47.91773148 -27.58590027 47.2065567 -27.29208374 46.47383118 C-26.36608169 44.1681315 -25.433622 41.86512383 -24.5 39.5625 C-23.8607087 37.98133557 -23.22154908 36.40011789 -22.58251953 34.81884766 C-21.62466469 32.4491818 -20.66629847 30.07973293 -19.70584106 27.71112061 C-17.83756 23.09823831 -16.00706608 18.47347893 -14.2109375 13.83203125 C-13.80939453 12.80843506 -13.40785156 11.78483887 -12.99414062 10.73022461 C-12.26489794 8.86973308 -11.54686173 7.00479777 -10.84179688 5.13500977 C-10.52017578 4.32475342 -10.19855469 3.51449707 -9.8671875 2.6796875 C-9.60019043 1.98601074 -9.33319336 1.29233398 -9.05810547 0.57763672 C-8 -1 -8 -1 -6.13330078 -1.85498047 C-3.34814289 -2.04431256 -2.24826154 -1.66839837 0 0 Z M-5 6 C-6.7132732 10.37659283 -8.42215493 14.75486459 -10.12695312 19.13476562 C-10.7077731 20.62514709 -11.28979968 22.11505891 -11.87304688 23.60449219 C-12.71019528 25.74292231 -13.54301894 27.88299257 -14.375 30.0234375 C-14.63748535 30.69120209 -14.8999707 31.35896667 -15.17041016 32.04696655 C-16.54380242 35.42411908 -16.54380242 35.42411908 -17 39 C-8.75 39 -0.5 39 8 39 C6.33042749 31.48692369 4.30496107 25.07065266 1.5 18 C1.09652344 16.95199219 0.69304687 15.90398437 0.27734375 14.82421875 C-0.30853516 13.33341797 -0.30853516 13.33341797 -0.90625 11.8125 C-1.26009766 10.91144531 -1.61394531 10.01039063 -1.97851562 9.08203125 C-2.81843809 6.83827713 -2.81843809 6.83827713 -5 6 Z " fill="#E4E4E4" transform="translate(461,173)"/>
<path d="M0 0 C32.23130301 1.15111796 32.23130301 1.15111796 38.9375 8 C42.26258776 12.83649128 42.57991888 17.16798564 42 23 C40.25198727 28.96380812 37.20687806 32.73432696 32 36 C26.78098672 38.25455133 21.71912192 38.42208446 16.125 38.625 C13.11375 38.74875 10.1025 38.8725 7 39 C6.67 46.92 6.34 54.84 6 63 C4.02 63 2.04 63 0 63 C0 42.21 0 21.42 0 0 Z M6 7 C5.97113016 10.97915159 5.95324594 14.95827653 5.9375 18.9375 C5.92912109 20.07380859 5.92074219 21.21011719 5.91210938 22.38085938 C5.90888672 23.46044922 5.90566406 24.54003906 5.90234375 25.65234375 C5.89710693 26.65257568 5.89187012 27.65280762 5.88647461 28.68334961 C5.73818905 30.96207228 5.73818905 30.96207228 7 32 C9.72213601 32.15486988 12.40140477 32.23178197 15.125 32.25 C15.87265625 32.270625 16.6203125 32.29125 17.390625 32.3125 C23.76059549 32.35689004 28.5081518 31.17238049 33.4375 26.875 C35.62698045 22.84635597 35.79040183 19.48948239 35 15 C32.92273252 10.91965317 31.24622519 8.66659086 27 7 C24.58507548 6.72692179 24.58507548 6.72692179 22.015625 6.8046875 C20.61376953 6.81435547 20.61376953 6.81435547 19.18359375 6.82421875 C17.73146484 6.84935547 17.73146484 6.84935547 16.25 6.875 C15.26644531 6.88402344 14.28289062 6.89304688 13.26953125 6.90234375 C10.84610593 6.92587215 8.42317778 6.95874632 6 7 Z " fill="#EEEEEE" transform="translate(288,171)"/>
<path d="M0 0 C14.19 0.33 28.38 0.66 43 1 C43 2.98 43 4.96 43 7 C37.06 7 31.12 7 25 7 C25 25.48 25 43.96 25 63 C22.69 63 20.38 63 18 63 C18 44.52 18 26.04 18 7 C12.06 7 6.12 7 0 7 C0 4.69 0 2.38 0 0 Z " fill="#E2E2E2" transform="translate(389,171)"/>
<path d="M0 0 C2.475 0.99 2.475 0.99 5 2 C4.67 3.98 4.34 5.96 4 8 C1.69 8 -0.62 8 -3 8 C-1.125 1.125 -1.125 1.125 0 0 Z " fill="#C7C7C7" transform="translate(83,35)"/>
<path d="M0 0 C0.66 0 1.32 0 2 0 C4 3 4 3 3.875 5.0625 C2.7413007 7.57283417 1.51381062 8.02691202 -1 9 C-1.99 8.01 -2.98 7.02 -4 6 C-2.84826645 3.53199953 -1.95216435 1.95216435 0 0 Z " fill="#C2C2C2" transform="translate(91,25)"/>
<path d="M0 0 C3 1 3 1 4.1875 3.0625 C4.455625 3.701875 4.72375 4.34125 5 5 C1.375 8 1.375 8 -2 8 C-2.66 6.35 -3.32 4.7 -4 3 C-2.1875 1.4375 -2.1875 1.4375 0 0 Z " fill="#C6C6C6" transform="translate(101,18)"/>
<path d="M0 0 C0.598125 0.20625 1.19625 0.4125 1.8125 0.625 C2.1425 2.275 2.4725 3.925 2.8125 5.625 C-0.1875 7.625 -0.1875 7.625 -3.1875 7.625 C-3.8475 5.645 -4.5075 3.665 -5.1875 1.625 C-2.1875 -0.375 -2.1875 -0.375 0 0 Z " fill="#CCCCCC" transform="translate(91.1875,72.375)"/>
<path d="M0 0 C0.33 2.31 0.66 4.62 1 7 C-0.98 7.33 -2.96 7.66 -5 8 C-5.33 6.02 -5.66 4.04 -6 2 C-2.25 0 -2.25 0 0 0 Z " fill="#C9C9C9" transform="translate(88,60)"/>
<path d="M0 0 C0.625 3.0625 0.625 3.0625 1 6 C-1.31 6.33 -3.62 6.66 -6 7 C-6 4.69 -6 2.38 -6 0 C-2.25 -1.125 -2.25 -1.125 0 0 Z " fill="#D1D1D1" transform="translate(86,49)"/>
<path d="M0 0 C2 3 2 3 1.625 5.1875 C1.41875 5.785625 1.2125 6.38375 1 7 C-0.65 7.33 -2.3 7.66 -4 8 C-4.66 6.35 -5.32 4.7 -6 3 C-4.02 2.01 -2.04 1.02 0 0 Z " fill="#D7D7D7" transform="translate(114,12)"/>
<path d="M0 0 C2.1385485 2.1385485 2.42655063 3.13275314 3 6 C1.02 6.66 -0.96 7.32 -3 8 C-5 5 -5 5 -4.625 2.8125 C-4.41875 2.214375 -4.2125 1.61625 -4 1 C-2.125 0.375 -2.125 0.375 0 0 Z " fill="#C4C4C4" transform="translate(125,8)"/>
</svg>
