<?xml version="1.0" standalone="no"?>
<!DOCTYPE svg PUBLIC "-//W3C//DTD SVG 20010904//EN"
 "http://www.w3.org/TR/2001/REC-SVG-20010904/DTD/svg10.dtd">
<svg version="1.0" xmlns="http://www.w3.org/2000/svg"
 width="215.000000pt" height="229.000000pt" viewBox="0 0 215.000000 229.000000"
 preserveAspectRatio="xMidYMid meet">

<g transform="translate(0.000000,229.000000) scale(0.100000,-0.100000)"
fill="#e21506" stroke="none">
<path d="M40 1515 l0 -715 485 0 485 0 0 -370 0 -370 298 0 c454 0 564 14 660
83 54 39 109 122 134 201 24 75 21 214 -7 291 -36 103 -125 194 -212 218 -24
6 -43 14 -43 17 0 3 15 14 33 24 51 30 117 97 142 147 92 180 13 418 -168 503
-90 41 -139 46 -497 46 l-340 0 0 -335 0 -335 -420 0 -420 0 -1 250 c-1 138
-1 257 -1 265 0 8 0 20 1 25 1 6 134 10 376 10 l375 0 0 60 0 60 -375 0 -374
0 -3 256 c-2 141 -1 258 1 260 2 2 188 4 413 4 l408 0 0 60 0 60 -475 0 -475
0 0 -715z m1670 -67 c74 -19 111 -40 148 -83 40 -45 47 -71 47 -175 0 -102
-23 -154 -86 -199 -66 -48 -143 -60 -409 -61 -129 -1 -243 -1 -252 -1 -17 1
-18 21 -18 272 l0 272 258 -6 c172 -4 275 -10 312 -19z m57 -675 c55 -18 110
-49 138 -78 27 -27 56 -91 67 -150 24 -134 -24 -258 -120 -306 -80 -40 -165
-49 -451 -49 l-261 0 0 306 0 306 283 -4 c249 -4 289 -7 344 -25z"/>
</g>
</svg>
