<?xml version="1.0" encoding="UTF-8"?>
<svg version="1.1" xmlns="http://www.w3.org/2000/svg" width="267" height="298">
<path d="M0 0 C34.65 0 69.3 0 105 0 C107.98142397 5.96284794 105.36980013 13.34359765 105 20 C77.94 20 50.88 20 23 20 C23 39.47 23 58.94 23 79 C48.41 79 73.82 79 100 79 C100 85.6 100 92.2 100 99 C74.59 99 49.18 99 23 99 C23 121.11 23 143.22 23 166 C49.4 166 75.8 166 103 166 C103 138.61 103 111.22 103 83 C113.456875 82.938125 123.91375 82.87625 134.6875 82.8125 C137.94197998 82.78518799 141.19645996 82.75787598 144.54956055 82.72973633 C199.08022729 82.46372408 199.08022729 82.46372408 217.375 100.0625 C226.54411835 109.65005033 227.52216683 121.01132186 227.2734375 133.85546875 C226.74385402 145.18907965 222.3362016 153.90585554 214.26171875 161.671875 C208.34235243 166.58989241 201.08094167 169.19546973 194 172 C194.59425781 172.15855469 195.18851563 172.31710938 195.80078125 172.48046875 C209.66142889 176.38214406 221.49328465 182.18528178 229 195 C234.91110416 206.62027619 234.86583352 221.73107426 231.375 234.125 C227.6485916 244.40565864 221.95519355 253.58430442 212.625 259.5 C212.01720703 259.88800781 211.40941406 260.27601563 210.78320312 260.67578125 C200.25302184 267.1475679 189.13015135 270.17298799 176.79150391 270.11352539 C175.97798147 270.11364593 175.16445904 270.11376646 174.32628441 270.11389065 C171.709682 270.11314808 169.09315206 270.10554991 166.4765625 270.09765625 C164.85441116 270.0961848 163.23225934 270.09516534 161.61010742 270.09460449 C155.61506434 270.08937519 149.62003145 270.07541392 143.625 270.0625 C130.21875 270.041875 116.8125 270.02125 103 270 C103 242.61 103 215.22 103 187 C69.01 187 35.02 187 0 187 C0 125.29 0 63.58 0 0 Z M126 103 C126 122.8 126 142.6 126 163 C136.951875 163.0928125 136.951875 163.0928125 148.125 163.1875 C150.39906738 163.21481201 152.67313477 163.24212402 155.01611328 163.27026367 C176.70653302 163.69227242 176.70653302 163.69227242 195.70703125 154.50390625 C202.7891911 147.04265268 203.5839339 138.65170957 203.34375 128.6640625 C202.6964976 121.76494028 200.8454493 116.3254712 195.6875 111.5625 C181.07998009 100.59913939 158.9458198 102.83773286 141.5625 102.9375 C133.8590625 102.9684375 133.8590625 102.9684375 126 103 Z M126 182 C126 204.77 126 227.54 126 251 C132.97125 251.04125 139.9425 251.0825 147.125 251.125 C150.37947998 251.15231201 150.37947998 251.15231201 153.69970703 251.18017578 C179.81539866 251.43365225 179.81539866 251.43365225 202 239 C203.69928602 236.71405571 204.76612312 234.61012416 206 232 C206.391875 231.175 206.78375 230.35 207.1875 229.5 C210.37229051 219.70064457 209.80207454 209.48049755 206 200 C201.98029531 192.25834652 194.91849786 187.72891337 186.84204102 184.87792969 C174.15669969 180.95932412 160.80066152 181.76797698 147.6875 181.875 C136.9521875 181.936875 136.9521875 181.936875 126 182 Z " fill="#E11307" transform="translate(19,14)"/>
<path d="M0 0 C34.65 0 69.3 0 105 0 C105 0.99 105 1.98 105 3 C70.35 2.67 35.7 2.34 0 2 C0 1.34 0 0.68 0 0 Z " fill="#C83120" transform="translate(19,14)"/>
<path d="M0 0 C0.33 1.32 0.66 2.64 1 4 C2.36730003 4.0154612 2.36730003 4.0154612 3.76222229 4.03123474 C12.36904726 4.12937196 20.9758063 4.2319089 29.58252048 4.33933926 C34.00689369 4.39441108 38.43127367 4.44780509 42.85571289 4.49731445 C47.12866114 4.54519121 51.40153369 4.5975409 55.67439079 4.65294075 C57.30137169 4.67325916 58.92837325 4.69198887 60.55539131 4.70907402 C62.841121 4.73335253 65.12671071 4.76337258 67.41235352 4.79467773 C69.36094017 4.81799416 69.36094017 4.81799416 71.34889221 4.84178162 C74.98466443 4.99933544 78.41217548 5.42233885 82 6 C82 6.33 82 6.66 82 7 C54.94 7 27.88 7 0 7 C0 4.69 0 2.38 0 0 Z " fill="#C02117" transform="translate(122,277)"/>
<path d="M0 0 C19.47 0 38.94 0 59 0 C58.67 0.66 58.34 1.32 58 2 C54.97539347 3.00820218 52.94772808 3.12900643 49.78515625 3.1328125 C48.71885986 3.13474609 47.65256348 3.13667969 46.55395508 3.13867188 C45.4017749 3.13416016 44.24959473 3.12964844 43.0625 3.125 C41.88002686 3.12306641 40.69755371 3.12113281 39.47924805 3.11914062 C26.3085265 3.05679811 13.15785497 2.5639295 0 2 C0 1.34 0 0.68 0 0 Z " fill="#E82E24" transform="translate(123,97)"/>
<path d="M0 0 C2 1 2 1 2 1 Z M-47 1 C-31.49 1 -15.98 1 0 1 C-0.33 1.66 -0.66 2.32 -1 3 C-6.58638841 3.19294966 -12.17298622 3.3715607 -17.76025391 3.53710938 C-19.65946632 3.59537735 -21.55856443 3.65750819 -23.45751953 3.72363281 C-26.19282205 3.81820063 -28.92823956 3.89870229 -31.6640625 3.9765625 C-32.50804596 4.00875885 -33.35202942 4.0409552 -34.22158813 4.0741272 C-38.92376564 4.19263568 -42.57332003 3.8345364 -47 2 C-47 1.67 -47 1.34 -47 1 Z " fill="#D01408" transform="translate(191,176)"/>
<path d="M0 0 C0.99 0 1.98 0 3 0 C3 0.66 3 1.32 3 2 C4.98 1.34 6.96 0.68 9 0 C9 0.66 9 1.32 9 2 C11.97851562 1.90234375 11.97851562 1.90234375 14.95703125 1.8046875 C17 2 17 2 20 4 C7.13 4 -5.74 4 -19 4 C-18.67 3.34 -18.34 2.68 -18 2 C-16.17662109 1.90912109 -16.17662109 1.90912109 -14.31640625 1.81640625 C-12.73175772 1.73201668 -11.14712298 1.6473679 -9.5625 1.5625 C-8.76005859 1.52318359 -7.95761719 1.48386719 -7.13085938 1.44335938 C-3.24760439 1.5945704 -3.24760439 1.5945704 0 0 Z " fill="#DA131C" transform="translate(170,191)"/>
<path d="M0 0 C0.33 0 0.66 0 1 0 C1.89198606 18.36004646 1.89198606 18.36004646 -3 26 C-5.140625 26.7890625 -5.140625 26.7890625 -7 27 C-6.731875 26.505 -6.46375 26.01 -6.1875 25.5 C-2.21805956 17.14328329 -1.00707322 9.09920276 0 0 Z M-9 27 C-7 28 -7 28 -7 28 Z M-10 28 C-10 28.99 -10 29.98 -10 31 C-10.66 31.66 -11.32 32.32 -12 33 C-12.99 32.67 -13.98 32.34 -15 32 C-13.35 30.68 -11.7 29.36 -10 28 Z " fill="#D10A07" transform="translate(228,226)"/>
<path d="M0 0 C0.33 0 0.66 0 1 0 C1 3.63 1 7.26 1 11 C-3.29 11 -7.58 11 -12 11 C-11.67 10.34 -11.34 9.68 -11 9 C-8.35139573 8.40644386 -5.70802678 8.25790731 -3 8 C-2.01 5.36 -1.02 2.72 0 0 Z " fill="#E01315" transform="translate(118,101)"/>
<path d="M0 0 C0.33 0 0.66 0 1 0 C1 3.63 1 7.26 1 11 C0.01 11 -0.98 11 -2 11 C-1.34 7.37 -0.68 3.74 0 0 Z " fill="#D41310" transform="translate(118,101)"/>
<path d="M0 0 C0.33 0.99 0.66 1.98 1 3 C0.01 3.99 -0.98 4.98 -2 6 C-2.99 5.67 -3.98 5.34 -5 5 C-3.35 3.35 -1.7 1.7 0 0 Z " fill="#D81212" transform="translate(238,264)"/>
<path d="M0 0 C0.99 0.33 1.98 0.66 3 1 C1.87926138 1.83905565 0.75325453 2.67107831 -0.375 3.5 C-1.00148437 3.9640625 -1.62796875 4.428125 -2.2734375 4.90625 C-4 6 -4 6 -6 6 C-6 5.34 -6 4.68 -6 4 C-4.36368108 2.95107762 -2.69514137 1.95093297 -1 1 C-0.67 0.67 -0.34 0.34 0 0 Z " fill="#D41006" transform="translate(231,174)"/>
</svg>
