<?xml version="1.0" encoding="UTF-8"?>
<svg version="1.1" xmlns="http://www.w3.org/2000/svg" width="529" height="200">
<path d="M0 0 C-0.33 0.99 -0.66 1.98 -1 3 C-1.99515625 3.17015625 -2.9903125 3.3403125 -4.015625 3.515625 C-8.68126895 4.32076826 -13.34161787 5.15390739 -18 6 C-18.8549707 6.1551709 -19.70994141 6.3103418 -20.59082031 6.47021484 C-43.00037942 10.29930194 -43.00037942 10.29930194 -60.4375 24.0625 C-63.20925921 29.27340731 -64.26537819 34.00117718 -64.625 39.875 C-64.69976562 41.02742188 -64.77453125 42.17984375 -64.8515625 43.3671875 C-64.90054688 44.23601563 -64.94953125 45.10484375 -65 46 C-63.67548828 46.03867188 -63.67548828 46.03867188 -62.32421875 46.078125 C-46.76955779 46.81325398 -32.76715184 52.41125826 -22 64 C-15.25234767 72.40366957 -10 81.98903402 -10 93 C-16.93 93 -23.86 93 -31 93 C-31.99 89.7 -32.98 86.4 -34 83 C-37.65544508 75.64709323 -43.15425352 69.34442617 -50.875 66.25 C-55.18843503 64.94289848 -59.60019636 63.97773414 -64 63 C-64 73.89 -64 84.78 -64 96 C-65.98 96 -67.96 96 -70 96 C-71.47308269 93.05383462 -71.00294692 90.52237406 -70.87890625 87.2421875 C-70.84348976 86.24761032 -70.84348976 86.24761032 -70.80735779 85.23294067 C-70.73073184 83.11340871 -70.64670357 80.99424315 -70.5625 78.875 C-70.50927819 77.43882006 -70.4565378 76.0026222 -70.40429688 74.56640625 C-70.27511856 71.04404564 -70.1392997 67.52197648 -70 64 C-72.07636121 64.60467018 -74.15008071 65.2184162 -76.22265625 65.8359375 C-77.37773682 66.1767334 -78.53281738 66.5175293 -79.72290039 66.86865234 C-87.35406913 69.50314806 -91.80745322 74.10075361 -95.68359375 81.08203125 C-104.74977171 101.17827735 -104.91053166 127.92766975 -99 149 C-98.74476562 149.93328125 -98.48953125 150.8665625 -98.2265625 151.828125 C-95.46396715 160.09056614 -89.51308268 167.48982215 -81.75 171.5625 C-72.8124006 175.55386383 -59.47530735 175.77648815 -50.3125 172.3125 C-42.38701811 168.43692595 -37.69418482 162.91611033 -34 155 C-33.01 151.7 -32.02 148.4 -31 145 C-24.07 145 -17.14 145 -10 145 C-11.87806399 160.02451191 -17.81198211 172.34640642 -29.4765625 182.1796875 C-43.9020564 192.58569394 -60.95762453 194.1616012 -78.23242188 191.67919922 C-82.01633455 190.88233122 -85.48859309 189.59800554 -89 188 C-89.79921875 187.649375 -90.5984375 187.29875 -91.421875 186.9375 C-105.20413508 180.093895 -114.88610671 167.26227679 -120 153 C-127.82778739 127.53992386 -127.36466199 98.18606479 -115.25 74.125 C-107.58375959 61.13335595 -96.34103522 52.55193268 -82 48 C-78.8329757 47.24875238 -75.9389615 46.88239048 -72.6875 46.9375 C-70.8621875 46.9684375 -70.8621875 46.9684375 -69 47 C-69.03480469 46.40574219 -69.06960937 45.81148437 -69.10546875 45.19921875 C-69.45089849 34.62248916 -67.31197256 25.84783816 -60 18 C-46.70382231 3.93737597 -18.77909714 -0.77760237 0 0 Z " fill="#FCFCFC" transform="translate(135,3)"/>
<path d="M0 0 C2.70894767 -0.08144943 5.41541263 -0.14070614 8.125 -0.1875 C8.88554687 -0.21263672 9.64609375 -0.23777344 10.4296875 -0.26367188 C16.24307657 -0.33884501 20.13274983 0.76649826 24.8203125 4.41796875 C27.13583776 7.52322614 27.10278426 11.23552651 27 15 C25.875 18.4375 25.875 18.4375 24 21 C22.35 21.66 20.7 22.32 19 23 C22.3 28.28 25.6 33.56 29 39 C31.50478267 33.99043467 33.74168686 29.36655908 35.7265625 24.19921875 C36.2009375 22.97525391 36.6753125 21.75128906 37.1640625 20.49023438 C37.65146679 19.22281966 38.13844188 17.9552398 38.625 16.6875 C39.59219809 14.16891363 40.56422746 11.65237912 41.5390625 9.13671875 C41.96396973 8.03030029 42.38887695 6.92388184 42.82666016 5.78393555 C44 3 44 3 46 0 C48.625 -0.1875 48.625 -0.1875 51 0 C53.30903423 5.63683821 55.60567361 11.27850415 57.89086914 16.92504883 C58.67033941 18.84603129 59.45320533 20.76563948 60.23950195 22.68383789 C61.36780694 25.43804105 62.48388908 28.19692275 63.59765625 30.95703125 C63.952798 31.81649857 64.30793976 32.67596588 64.67384338 33.56147766 C64.99425095 34.36208115 65.31465851 35.16268463 65.64477539 35.98754883 C65.93123428 36.6914827 66.21769318 37.39541656 66.51283264 38.12068176 C67 40 67 40 66 43 C63.75 43 63.75 43 61 42 C58.10284439 37.92110986 56.97810648 33.89053242 56 29 C50.72 29 45.44 29 40 29 C39.525625 30.588125 39.05125 32.17625 38.5625 33.8125 C37.74279395 36.55673329 36.90577506 39.28267481 36 42 C30.63146084 42.9256102 27.05334491 43.51681548 22 41 C19.70645847 38.04692633 18.16657628 34.66491953 16.52148438 31.32226562 C16.16505859 30.65775391 15.80863281 29.99324219 15.44140625 29.30859375 C15.13920166 28.69814209 14.83699707 28.08769043 14.52563477 27.45874023 C12.49646606 25.23530242 12.49646606 25.23530242 6 25 C6 30.61 6 36.22 6 42 C3 43 3 43 0.8125 42.0625 C-0.0846875 41.5365625 -0.0846875 41.5365625 -1 41 C-1.12385692 27.29316778 -0.8230363 13.68297852 0 0 Z M6 5 C6 9.95 6 14.9 6 20 C12.13584927 20.3184525 12.13584927 20.3184525 18 18.875 C20.23599898 17.08379437 20.23599898 17.08379437 20.9375 14.0625 C21.05796413 10.13785583 21.05796413 10.13785583 19 7 C14.31561689 5.19831419 11.12619152 5 6 5 Z M48 9 C47.18618205 10.93694678 46.37399084 12.87457711 45.5625 14.8125 C45.11003906 15.89144531 44.65757812 16.97039062 44.19140625 18.08203125 C43.39624987 20.0295126 42.66520352 22.00438943 42 24 C45.96 24 49.92 24 54 24 C52.35 19.05 50.7 14.1 49 9 C48.67 9 48.34 9 48 9 Z " fill="#F4F4F4" transform="translate(429,101)"/>
<path d="M0 0 C2.64 0 5.28 0 8 0 C11.19774461 6.12901049 13.80738705 12.3486224 16.25 18.8125 C16.61351562 19.75287109 16.97703125 20.69324219 17.3515625 21.66210938 C17.69445312 22.56380859 18.03734375 23.46550781 18.390625 24.39453125 C18.70032227 25.20768799 19.01001953 26.02084473 19.32910156 26.85864258 C20 29 20 29 20 32 C20.66 32 21.32 32 22 32 C22.11859375 31.13415283 22.2371875 30.26830566 22.359375 29.3762207 C22.99857118 26.00753015 23.96890663 23.15558367 25.25 19.98046875 C25.6934375 18.87638672 26.136875 17.77230469 26.59375 16.63476562 C27.0578125 15.49716797 27.521875 14.35957031 28 13.1875 C28.69609375 11.45209961 28.69609375 11.45209961 29.40625 9.68164062 C32.85498768 1.14501232 32.85498768 1.14501232 34 0 C36.64 0 39.28 0 42 0 C42 13.86 42 27.72 42 42 C39.525 42.495 39.525 42.495 37 43 C35.14034925 41.14034925 35.75912451 38.05110881 35.68359375 35.55859375 C35.62643188 33.7960022 35.62643188 33.7960022 35.56811523 31.99780273 C35.52501221 30.49290283 35.48190918 28.98800293 35.4375 27.4375 C35.293125 22.673125 35.14875 17.90875 35 13 C31.37 22.57 27.74 32.14 24 42 C22.02 42 20.04 42 18 42 C12.555 28.14 12.555 28.14 7 14 C6.67 23.24 6.34 32.48 6 42 C4 43 4 43 0 42 C0 28.14 0 14.28 0 0 Z M5 8 C6 10 6 10 6 10 Z " fill="#F7F7F7" transform="translate(146,101)"/>
<path d="M0 0 C4.65705807 4.06623727 7.22672738 9.54540558 7.7734375 15.6328125 C7.90290019 22.33250681 7.55841804 28.92554983 2.98828125 34.1953125 C-2.33489717 38.98501334 -7.00048752 40.81128013 -14.15625 40.62109375 C-20.35008643 39.93998459 -24.51377184 37.04843746 -28.4296875 32.37109375 C-32.70602417 25.22320734 -32.50296745 17.11459185 -30.99609375 9.05078125 C-29.27502556 4.28310167 -25.5663838 1.06595399 -21.4296875 -1.62890625 C-14.27577029 -4.67594506 -6.60265646 -4.1919191 0 0 Z M-21.4296875 5.37109375 C-25.34589697 10.82581409 -25.88856663 15.74835174 -25.4296875 22.37109375 C-24.61841948 27.15757506 -23.42431752 30.4994724 -19.40625 33.48828125 C-15.23182978 35.35274562 -10.86353511 35.10105647 -6.4296875 34.37109375 C-2.23672997 32.06068858 -0.86801887 29.83617463 0.5703125 25.37109375 C0.92305579 21.99294477 0.92305579 21.99294477 0.8828125 18.43359375 C0.89957031 17.24894531 0.91632813 16.06429687 0.93359375 14.84375 C0.43674263 10.0942807 -0.94993872 6.67675444 -4.5546875 3.49609375 C-10.36565274 1.22223779 -16.52409623 1.18691296 -21.4296875 5.37109375 Z " fill="#F8F8F8" transform="translate(413.4296875,103.62890625)"/>
<path d="M0 0 C4.66587262 3.88822718 6.98309931 6.23296745 8.625 12.1875 C9.44215945 21.43095297 9.36852752 28.61207748 3.375 35.9375 C-1.42823437 39.86741903 -6.04578579 41.7688208 -12.33203125 41.46484375 C-18.83651469 40.58182592 -23.16374302 38.3038508 -27.1875 33.06640625 C-30.78610235 27.37256502 -31.15364584 20.72812504 -30.375 14.1875 C-28.65078573 7.44738968 -26.30639054 2.90915681 -20.375 -0.8125 C-13.52704606 -3.70971128 -6.53244639 -3.50816565 0 0 Z M-20.375 6.1875 C-23.05753115 10.65404458 -23.78412731 14.00014831 -23.75 19.1875 C-23.75773437 20.363125 -23.76546875 21.53875 -23.7734375 22.75 C-23.22996208 27.43880756 -21.82728818 30.86723802 -18.3125 34.0625 C-13.05825106 36.07476555 -7.74895447 35.99565471 -2.4375 34.1875 C1.86499337 30.01538522 2.79776393 24.89312446 3 19.125 C2.8251683 13.71354257 1.56086804 9.60733506 -1.875 5.3125 C-7.06609564 1.41917827 -15.65252369 2.02060914 -20.375 6.1875 Z " fill="#F9F9F9" transform="translate(129.375,102.8125)"/>
<path d="M0 0 C22.37719298 0 22.37719298 0 29.05859375 5.78125 C29.74115234 6.63203125 29.74115234 6.63203125 30.4375 7.5 C30.91058594 8.0671875 31.38367188 8.634375 31.87109375 9.21875 C35.14928869 14.3912652 34.42400107 21.12565784 34 27 C32.82261629 32.13598879 30.04858302 35.68752298 26 39 C19 42 19 42 0 42 C0 28.14 0 14.28 0 0 Z M6 5 C6 15.56 6 26.12 6 37 C15.01784729 37.17103418 15.01784729 37.17103418 23 34 C27.16607032 29.51346274 28.09066037 24.95336397 28 19 C27.55330802 15.1034715 26.61920271 11.90498858 24.375 8.625 C18.51589545 4.61613899 12.95380304 5 6 5 Z " fill="#F7F7F7" transform="translate(342,101)"/>
<path d="M0 0 C1.98 0 3.96 0 6 0 C6.01981934 0.91813477 6.03963867 1.83626953 6.06005859 2.78222656 C6.13826955 6.19671825 6.22496584 9.61077702 6.31738281 13.02490234 C6.35560666 14.50105536 6.39047103 15.97729943 6.421875 17.45361328 C6.46766986 19.57878094 6.52563837 21.70332542 6.5859375 23.828125 C6.6173584 25.1059082 6.6487793 26.38369141 6.68115234 27.70019531 C6.97511752 30.74248726 7.29775581 32.499947 9 35 C11.43954658 36.21977329 13.15305849 36.20153813 15.875 36.25 C16.73867187 36.27578125 17.60234375 36.3015625 18.4921875 36.328125 C21.64863207 35.91513225 22.77704122 35.28678545 25 33 C25.63074194 29.63123517 25.63074194 29.63123517 25.57421875 25.7421875 C25.59546562 24.68670212 25.59546562 24.68670212 25.61714172 23.6098938 C25.65905027 21.36477328 25.67428578 19.12045671 25.6875 16.875 C25.71652228 14.62277542 25.75101238 12.37075638 25.78999329 10.11868286 C25.82279901 8.0803986 25.84081142 6.04189244 25.8581543 4.00341797 C26 1 26 1 27 0 C29.5 -0.125 29.5 -0.125 32 0 C34.58869891 2.58869891 33.23008508 9.5710916 33.24023438 13.08105469 C33.24986209 15.09613567 33.28083261 17.11016213 33.3125 19.125 C33.36868676 33.08741069 33.36868676 33.08741069 28.5 38.7421875 C22.97360824 42.91576461 18.7503786 43.61775511 12 43 C6.79456122 41.37863382 3.97850528 39.58231582 1 35 C-0.1687481 31.4937557 -0.12514267 28.3522134 -0.09765625 24.70703125 C-0.0962413 24.00100266 -0.09482635 23.29497406 -0.09336853 22.56755066 C-0.08777764 20.31582374 -0.07522688 18.06419679 -0.0625 15.8125 C-0.05748382 14.28450665 -0.05292112 12.75651173 -0.04882812 11.22851562 C-0.0378112 7.48563865 -0.02055287 3.74283627 0 0 Z " fill="#F1F1F1" transform="translate(232,101)"/>
<path d="M0 0 C1.98 0 3.96 0 6 0 C8.12113544 5.33727139 10.23896827 10.67583676 12.35375977 16.015625 C13.07355725 17.83173941 13.79425375 19.64749778 14.51586914 21.46289062 C15.55331549 24.07328558 16.58751543 26.6849465 17.62109375 29.296875 C17.94403915 30.10743347 18.26698456 30.91799194 18.59971619 31.75311279 C18.89995193 32.51359924 19.20018768 33.27408569 19.50952148 34.05761719 C19.77377426 34.72380066 20.03802704 35.38998413 20.31028748 36.07635498 C21.01114601 38.03108682 21.53094856 39.97827446 22 42 C19.69 42 17.38 42 15 42 C14.32694982 40.39850114 13.66177773 38.79368971 13 37.1875 C12.62875 36.29417969 12.2575 35.40085938 11.875 34.48046875 C11 32 11 32 11 29 C5.72 29 0.44 29 -5 29 C-5.474375 30.588125 -5.94875 32.17625 -6.4375 33.8125 C-7.25720605 36.55673329 -8.09422494 39.28267481 -9 42 C-13.75 43.125 -13.75 43.125 -16 42 C-13.20867406 33.14232672 -9.73743569 24.56391273 -6.3125 15.9375 C-5.69964922 14.38875914 -5.08701716 12.83993171 -4.47460938 11.29101562 C-2.98559395 7.52634046 -1.49361915 3.7628509 0 0 Z M2 10 C0.35 14.62 -1.3 19.24 -3 24 C0.96 24 4.92 24 9 24 C7.35 19.38 5.7 14.76 4 10 C3.34 10 2.68 10 2 10 Z " fill="#F8F8F8" transform="translate(316,101)"/>
<path d="M0 0 C2.70894767 -0.08144943 5.41541263 -0.14070614 8.125 -0.1875 C8.88554687 -0.21263672 9.64609375 -0.23777344 10.4296875 -0.26367188 C16.58724694 -0.34329549 20.6755859 0.92026107 25.375 5.125 C27.65176161 9.15311669 27.78212179 12.47486679 27 17 C25.24679212 20.6412779 23.68363505 22.49977923 20.4375 24.875 C15.50617958 26.48888668 11.17850193 26.18945739 6 26 C6 31.28 6 36.56 6 42 C3.525 42.495 3.525 42.495 1 43 C0 42 0 42 -0.11352539 38.03100586 C-0.1133662 36.25894393 -0.10766785 34.4868774 -0.09765625 32.71484375 C-0.0962413 31.78402481 -0.09482635 30.85320587 -0.09336853 29.8941803 C-0.08775172 26.90858809 -0.0751964 23.92306971 -0.0625 20.9375 C-0.05748716 18.91862087 -0.05292388 16.89974057 -0.04882812 14.88085938 C-0.03777683 9.92054428 -0.02050095 4.96028468 0 0 Z M6 5 C6 10.28 6 15.56 6 21 C13.83275116 21.37012299 13.83275116 21.37012299 20 18 C21.08463947 15.26810059 21.31735115 12.91492904 21 10 C19.90640718 7.31897556 19.90640718 7.31897556 17 6 C13.30310865 5.37853982 9.76017642 5.17905602 6 5 Z " fill="#F9F9F9" transform="translate(198,101)"/>
<path d="M0 0 C-0.66 1.65 -1.32 3.3 -2 5 C-3.2375 4.7525 -3.2375 4.7525 -4.5 4.5 C-11.4830607 3.33729488 -11.4830607 3.33729488 -18.0625 5.1875 C-19.19142622 7.02999011 -19.19142622 7.02999011 -19 9.5 C-17.38980281 13.52549298 -14.4076959 14.36904245 -10.5859375 16.08203125 C-1.30916077 20.39203814 -1.30916077 20.39203814 1 26 C1.41320666 30.5632388 0.57818656 33.26120606 -2.25 36.875 C-6.54488784 40.19377697 -10.09332501 41.28037458 -15.5 41.25 C-16.4178125 41.25515625 -17.335625 41.2603125 -18.28125 41.265625 C-21.22756458 40.97776668 -23.3755958 40.36561918 -26 39 C-26.8125 36.375 -26.8125 36.375 -27 34 C-24 33 -24 33 -21 34 C-18.98093192 34.09416778 -16.95875687 34.12991192 -14.9375 34.125 C-13.87402344 34.12757813 -12.81054688 34.13015625 -11.71484375 34.1328125 C-9.03295616 34.18438455 -9.03295616 34.18438455 -7 33 C-6.0557408 31.22915167 -6.0557408 31.22915167 -6 29 C-8.02789565 24.62799447 -9.92920033 23.20523823 -14.375 21.5 C-19.61317777 19.30356832 -23.37802778 17.24394445 -26 12 C-26.51212491 7.56158412 -26.32646837 5.52432799 -23.9375 1.6875 C-17.31317268 -4.37305478 -7.68100399 -4.30842522 0 0 Z " fill="#F6F6F6" transform="translate(524,103)"/>
<path d="M0 0 C10.56 0 21.12 0 32 0 C32 1.65 32 3.3 32 5 C31.67 5.33 31.34 5.66 31 6 C27.04 6 23.08 6 19 6 C19 17.88 19 29.76 19 42 C17.02 42 15.04 42 13 42 C13 30.12 13 18.24 13 6 C8.71 6 4.42 6 0 6 C0 4.02 0 2.04 0 0 Z " fill="#F9F9F9" transform="translate(269,101)"/>
<path d="M0 0 C-0.33 0.99 -0.66 1.98 -1 3 C-1.99515625 3.17015625 -2.9903125 3.3403125 -4.015625 3.515625 C-8.68126895 4.32076826 -13.34161787 5.15390739 -18 6 C-18.8549707 6.1551709 -19.70994141 6.3103418 -20.59082031 6.47021484 C-43.00037942 10.29930194 -43.00037942 10.29930194 -60.4375 24.0625 C-63.20925921 29.27340731 -64.26537819 34.00117718 -64.625 39.875 C-64.69976562 41.02742188 -64.77453125 42.17984375 -64.8515625 43.3671875 C-64.90054688 44.23601563 -64.94953125 45.10484375 -65 46 C-65.66 45.34 -66.32 44.68 -67 44 C-67.66 44.99 -68.32 45.98 -69 47 C-69.5904482 36.91864376 -68.28162522 27.71560845 -61.65234375 19.7734375 C-47.47686224 4.55909091 -20.34580517 -0.8424764 0 0 Z " fill="#D8D8D8" transform="translate(135,3)"/>
<path d="M0 0 C-0.33 0.99 -0.66 1.98 -1 3 C-5.15152956 3.73783108 -9.30356408 4.47237274 -13.45703125 5.19921875 C-16.12438874 5.66640811 -18.78720906 6.14710022 -21.44921875 6.64453125 C-27.70562039 7.78131534 -33.64238234 8.25317946 -40 8 C-39.67 7.34 -39.34 6.68 -39 6 C-37.27270508 5.4375 -37.27270508 5.4375 -35.01953125 5 C-34.19138916 4.8359668 -33.36324707 4.67193359 -32.51000977 4.50292969 C-31.61983154 4.33696289 -30.72965332 4.17099609 -29.8125 4 C-28.91007568 3.82629883 -28.00765137 3.65259766 -27.07788086 3.47363281 C-7.81488854 -0.17270472 -7.81488854 -0.17270472 0 0 Z " fill="#D2D2D2" transform="translate(135,3)"/>
<path d="M0 0 C0.33 0.66 0.66 1.32 1 2 C-6.15775723 4.28612778 -12.48193151 5.44032071 -20 5 C-19.67 4.34 -19.34 3.68 -19 3 C-16.26953125 2.1484375 -16.26953125 2.1484375 -12.8125 1.375 C-11.12060547 0.98441406 -11.12060547 0.98441406 -9.39453125 0.5859375 C-6.18079796 0.03120793 -3.25233567 -0.1085757 0 0 Z " fill="#D7D7D7" transform="translate(115,6)"/>
<path d="M0 0 C1.66413655 3.3282731 0.81867406 6.99733973 0.5625 10.625 C0.51029297 11.42679688 0.45808594 12.22859375 0.40429688 13.0546875 C0.27451629 15.03679103 0.13790265 17.01844499 0 19 C-0.66 18.34 -1.32 17.68 -2 17 C-2.66 17.99 -3.32 18.98 -4 20 C-4.38882348 13.10198348 -3.79990717 7.36870077 -1 1 C-0.67 0.67 -0.34 0.34 0 0 Z " fill="#C8C8C8" transform="translate(70,30)"/>
<path d="M0 0 C0.66 0.33 1.32 0.66 2 1 C0.84906095 3.49370127 -0.42348164 5.60875485 -2 7.875 C-3.93362349 10.89628671 -5.01939272 13.56787452 -6 17 C-6.82638376 14.10765685 -7 12.11257569 -7 9 C-4.99930443 5.61951439 -2.92650183 2.63385165 0 0 Z " fill="#DFDFDF" transform="translate(77,19)"/>
<path d="M0 0 C-0.25 1.875 -0.25 1.875 -1 4 C-3.0625 5.25 -3.0625 5.25 -5 6 C-5 4.68 -5 3.36 -5 2 C-2 0 -2 0 0 0 Z " fill="#E1E1E1" transform="translate(84,15)"/>
<path d="M0 0 C1.46726798 3.81489674 0.43336419 6.29011622 -1 10 C-1.82638376 7.10765685 -2 5.11257569 -2 2 C-1.34 1.34 -0.68 0.68 0 0 Z " fill="#BFBFBF" transform="translate(72,26)"/>
<path d="M0 0 C1.093125 0.226875 2.18625 0.45375 3.3125 0.6875 C-0.3316774 3.1169516 -2.39991272 2.84929575 -6.6875 2.6875 C-4.58035839 -0.41123767 -3.86755884 -0.32775922 0 0 Z " fill="#D1D1D1" transform="translate(96.6875,10.3125)"/>
<path d="M0 0 C-3.4352048 2.29013653 -4.985331 2.17842973 -9 2 C-8 0 -8 0 -6.1875 -0.6875 C-3.81180233 -1.02688538 -2.26664171 -0.72856341 0 0 Z " fill="#FAFAFA" transform="translate(104,9)"/>
</svg>
